<?xml version="1.0" encoding="UTF-8" standalone="no"?>
<!DOCTYPE svg PUBLIC "-//W3C//DTD SVG 1.1//EN" "http://www.w3.org/Graphics/SVG/1.1/DTD/svg11.dtd">
<svg width="100%" height="100%" viewBox="0 0 499 495" version="1.1" xmlns="http://www.w3.org/2000/svg" xmlns:xlink="http://www.w3.org/1999/xlink" xml:space="preserve" xmlns:serif="http://www.serif.com/" style="fill-rule:evenodd;clip-rule:evenodd;stroke-linejoin:round;stroke-miterlimit:2;">
    <g transform="matrix(0.95365,0,0,0.95365,11.5612,11.4494)">
        <path d="M1.707,219.105C36.582,191.401 71.648,173.954 107.502,175.235C107.621,175.239 107.74,175.244 107.858,175.25C125.391,176.132 142.614,182.4 159.417,191.5C173.164,198.946 186.68,208.385 200.081,216.997C231.71,198.493 259.89,190.809 286.43,194.3C286.51,194.311 286.59,194.322 286.67,194.333C301.696,196.462 316.193,204.002 330.789,211.552C332.426,208.384 333.556,204.779 334.5,201.034C340.088,176.398 328.941,150.888 314.827,129.34C311.284,132.497 306.981,135.698 302.039,138.417C290.416,144.813 275.578,149.025 259.317,147.732C257.889,147.618 256.498,147.384 255.156,147.039C254.567,147.451 253.961,147.842 253.338,148.211C252.27,148.842 251.156,149.391 250.005,149.854C237.039,155.067 223.987,154.858 208.416,153.237C204.938,152.875 201.577,151.772 198.56,150.004C192.832,146.646 188.22,141.545 184.888,135.172C183.17,131.887 182.024,127.975 180.533,124.997C179.06,122.057 178.218,118.904 177.998,115.726C174.629,113.378 171.845,110.183 169.981,106.361C165.374,96.915 162.453,87.963 159.35,77.421C157.882,72.431 158.039,67.103 159.799,62.208C168.969,36.712 170.664,27.96 188.84,9.436L191.362,8.209L197.754,4.066C198.665,3.438 199.686,2.987 200.763,2.735C221.369,-2.073 242.2,-7.201 262.774,-11.49C268.234,-12.628 273.92,-11.87 278.891,-9.34C309.495,6.236 338.484,21.445 360.811,39.706C362.963,41.466 364.8,43.579 366.243,45.955C395.867,94.736 437.682,141.254 467.851,188.532C502.076,242.164 521.157,295.601 505.101,353.481C502.832,361.662 496.49,368.086 488.338,370.46C485.695,371.229 480.166,372.287 472.907,372.323C472.802,372.323 472.697,372.323 472.592,372.322C457.444,372.202 441.322,371.948 424.982,372.36C422.694,375.136 419.775,377.432 416.357,379.012C360.54,404.811 304.178,418.696 235.113,403.962C229.943,436.7 213.132,465.039 190.795,495.906C186.186,502.274 178.803,506.045 170.942,506.045L86.262,506.045C79.123,506.045 72.55,502.957 68.008,497.89C63.214,500.286 58.303,502.465 53.286,504.402C50.471,505.488 47.48,506.045 44.463,506.045L12.5,506.045C-1.034,506.045 -12.006,495.073 -12.006,481.539L-12.006,241.832C-12.006,234.363 -8.599,227.301 -2.753,222.652L1.642,219.157C0.854,219.793 0.267,220.45 -0.151,221.118C-1.668,223.387 -2.109,224.252 -0.151,221.118C0.336,220.39 0.936,219.727 1.642,219.157L1.707,219.105C1.707,219.105 2.886,218.175 1.707,219.105ZM211.842,392.504C193.119,399.741 171.006,408.648 152.146,406.566C138.274,434.219 118.512,461.569 86.262,481.539L170.942,481.539C192.506,451.741 209.009,424.964 211.842,392.504ZM206.332,26.6C191.31,41.91 190.438,49.429 182.859,70.502C185.549,79.642 188.013,87.429 192.007,95.619C197.165,95.902 202.772,96.089 207.349,96.049C201.239,85.841 199.073,76.729 202.616,60.775C206.916,79.825 215.463,90.768 223.819,95.107C226.851,94.773 229.776,94.393 232.595,93.961C226.34,83.624 224.101,74.491 227.681,58.373C231.578,75.643 238.968,86.249 246.541,91.313C251.199,90.27 255.824,89.07 260.468,87.779C254.951,78.089 253.108,69.087 256.498,53.822C259.855,68.698 265.805,78.632 272.23,84.338C277.325,82.768 281.526,81.44 286.082,79.991C285.397,74.209 285.666,67.804 287.146,60.876L289.029,52.076L306.632,55.836L304.752,64.64C301.116,81.648 306.076,89.06 312.058,93.306C318.038,97.55 326.748,96.766 328.088,95.906L335.664,91.046L345.384,106.196C341.527,108.536 337.484,111.636 333.562,113.256C352.212,140.934 365.745,174.721 358.318,206.806C355.953,216.28 352.288,225.049 346.603,231.792C359.328,243.922 367.818,253.818 377.635,266.292C373.922,263.905 370.049,261.448 365.943,258.922C354.546,251.912 342.111,244.708 330.963,239.12C314.951,231.32 299.596,220.915 283.233,218.597C260.681,215.63 236.963,223.394 209.913,239.657C217.785,248.377 223.195,255.131 230.225,263.945C223.245,259.607 215.573,254.875 207.065,249.715C174.511,232.235 141.675,201.488 106.627,199.725C76.067,198.633 46.675,214.68 16.95,238.293L12.5,241.832L12.5,481.539L44.463,481.539C89.647,464.102 124.75,423.885 141.493,387.019L141.743,386.455L142.068,385.935C151.531,370.683 153.216,356.247 158.858,341.203C164.503,326.159 175.765,311.485 200.742,302.447C205.095,300.287 205.812,301.032 209.375,303.842C239.843,327.852 266.665,335.862 292.615,336.192C325.225,334.635 351.057,326.31 378.297,316.812C374.331,320.34 369.527,324.022 364.311,327.574C348.988,338.01 330.094,347.502 318.007,352.374C303.291,354.38 289.647,354.79 276.04,352.99C266.08,365.08 250.466,373.348 238.69,379.663C302.61,393.686 354.57,380.573 406.076,356.767C396.554,354.95 387.068,353.075 378.082,351.347C409.716,346.925 443.066,347.581 472.787,347.817C476.871,347.797 480,347.364 481.487,346.931C495.654,295.859 477.392,249.038 447.193,201.715C416.93,154.29 375.013,107.608 345.297,58.675C324.197,41.418 296.697,27.22 267.775,12.5C247.389,16.75 226.749,21.836 206.332,26.6ZM291.717,97.089C280.039,100.689 268.007,104.514 257.865,107.101C260.392,112.031 261.6,117.765 261.26,123.303C272.288,124.18 282.342,121.285 290.225,116.947C295.07,114.281 298.965,110.899 301.639,107.987C297.786,105.252 294.38,101.578 291.717,97.089ZM202.524,321.119C184.931,328.352 179.938,336.259 175.711,347.525C171.713,358.185 169.484,372.601 161.231,388.539C193.521,382.159 230.856,367.309 255.083,348.451C238.066,343.353 220.53,334.599 202.526,321.119L202.524,321.119ZM237.504,111.787C225.744,112.93 212.914,114.149 202.444,114.023C204.834,118.795 206.224,126.09 210.954,128.863C222.134,130.027 231.554,130.86 240.864,127.117C246.299,123.903 242.682,112.059 237.504,111.787Z" style="fill-rule:nonzero;"/>
    </g>
</svg>
