<?xml version="1.0" encoding="UTF-8" standalone="no"?>
<!DOCTYPE svg PUBLIC "-//W3C//DTD SVG 1.1//EN" "http://www.w3.org/Graphics/SVG/1.1/DTD/svg11.dtd">
<svg width="100%" height="100%" viewBox="0 0 149 156" version="1.1" xmlns="http://www.w3.org/2000/svg" xmlns:xlink="http://www.w3.org/1999/xlink" xml:space="preserve" xmlns:serif="http://www.serif.com/" style="fill-rule:evenodd;clip-rule:evenodd;stroke-linejoin:round;stroke-miterlimit:2;">
    <g id="war-axe.svg" transform="matrix(-0.288392,5.12416e-17,-2.77138e-17,0.295152,73.8659,78.7221)">
        <g transform="matrix(1,0,0,1,-256,-256)">
            <g>
                <path d="M410.111,19.227C379.838,43.471 356.101,57.624 345.926,67.822C342.651,71.104 339.62,76.87 338.984,81.559C338.349,86.247 338.984,88.921 342.68,91.447L342.71,91.469L368.947,109.732C372.278,112.012 374.362,111.522 378.221,108.979C382.08,106.435 385.967,101.117 387.264,97.159C392.196,82.099 397.481,56.453 410.111,19.227ZM223.744,80.4L246.256,130.326L258.5,126.666L284.797,144.973L305.365,115.428L279.068,97.119L278.25,84.367L223.744,80.4ZM437.361,90.475C428.811,117.562 418.249,133.237 406.959,142.168C416.479,228.325 400.037,281.756 370.719,318.218C341.23,354.892 300.167,373.879 262.891,394.978L262.561,394.393C237.546,459.658 182.446,480.854 172.148,490.573C194.898,485.772 231.492,477.681 271.461,463.506L285.373,437.793L300.133,449.781L319.52,425.623L338.437,434.26C383.795,409.985 426.203,376.173 450.984,328.854L421.131,297.721C421.131,297.721 444.283,307.36 458.42,312.931C474.406,274.228 479.014,227.287 465.557,170.311L445.82,161.832L460.531,151.422C454.863,132.204 447.222,111.911 437.361,90.475ZM333.28,106.834L325.282,118.324L349.903,135.464L357.901,123.974L333.28,106.834ZM314.997,133.098L206.443,289.033L231.064,306.173L339.617,150.238L314.997,133.098ZM389.79,151.043C379.61,153.96 369.361,153.486 359.864,152.66L350.194,166.553C354.739,166.59 359.784,166.629 367.284,166.961L374.306,167.271L375.706,174.156C378.844,189.571 378.078,197.326 375.899,207.611L374.542,214.02L333.329,218.31L324.575,203.354L284.73,260.592C292.184,267.577 297.043,277.619 301.628,288.324C307.15,301.217 311.545,315.29 314.841,326.008L297.634,331.297C294.364,320.665 290.089,307.103 285.081,295.41C281.631,287.357 277.485,280.306 274.056,275.924L259.355,297.043C270.554,291.907 273.883,295.107 274.571,308.438C275.793,332.096 273.861,352.641 269.782,370.528C302.471,352.453 334.087,335.05 356.69,306.939C382.035,275.419 397.398,229.923 389.79,151.043ZM153.775,180.91L176.553,230.453L188.797,226.793L215.094,245.1L234.586,217.102L208.523,198.455L207.807,185.559L153.775,180.91ZM337.871,184.252L335.904,187.078L343.002,199.207L359.555,197.484C360.192,193.597 360.161,190.222 359.318,184.775C351.483,184.6 345.594,184.633 337.871,184.252ZM348.074,230.66C353.028,230.61 357.994,230.856 362.807,231.225L372.379,231.957L371.031,241.461C367.874,263.715 361.741,282.109 336.611,298.43L330.451,302.43L325.297,297.195C318.233,290.021 312.309,281.597 308.703,272.928C305.098,264.258 303.2,254.403 308.695,245.836C314.297,237.102 323.905,233.492 333.422,231.867C338.18,231.055 343.121,230.71 348.074,230.66ZM347.502,248.795C343.513,248.833 339.731,249.049 336.449,249.609C329.454,250.803 325.389,253.151 323.848,255.555C323.368,256.302 322.875,260.128 325.324,266.015C326.999,270.043 329.813,274.577 333.176,278.861C345.714,269.441 349.267,261.238 351.549,248.811C350.185,248.79 348.831,248.782 347.502,248.795ZM196.158,303.807L188.16,315.297L212.781,332.437L220.779,320.947L196.158,303.807ZM177.875,330.07L63.755,494L100.311,494L202.498,347.209L177.875,330.07Z" style="fill:white;fill-rule:nonzero;stroke:black;stroke-width:14px;"/>
            </g>
        </g>
    </g>
</svg>
