<?xml version="1.0" encoding="UTF-8" standalone="no"?>
<!DOCTYPE svg PUBLIC "-//W3C//DTD SVG 1.1//EN" "http://www.w3.org/Graphics/SVG/1.1/DTD/svg11.dtd">
<svg width="100%" height="100%" viewBox="0 0 678 679" version="1.1" xmlns="http://www.w3.org/2000/svg" xmlns:xlink="http://www.w3.org/1999/xlink" xml:space="preserve" xmlns:serif="http://www.serif.com/" style="fill-rule:evenodd;clip-rule:evenodd;stroke-linejoin:round;stroke-miterlimit:2;">
    <ellipse cx="338.541" cy="339.162" rx="338.541" ry="339.162"/>
    <path d="M506.416,96.438L459.241,126.01C489.406,146.491 521.981,163.887 566.011,166.887C547.954,181.708 530.651,197.157 519.835,218.011L494.548,231.204C495.281,227.372 496.014,220.751 496.747,210.315C496.747,210.315 481.024,187.115 462.79,185.703C448.008,184.559 422.414,220.228 408.992,231.356C400.249,238.604 384.21,248.563 382.255,252.47C380.825,255.326 388.977,271.611 388.977,271.611L365.915,297.719L352.722,240.549C350.205,214.794 352.186,188.872 365.889,162.516C378.323,123.694 406.244,103.6 444.498,96.001L506.416,96.438ZM139.402,343.099C139.773,336.68 146.002,349.776 156.508,349.486C170.948,349.089 170.274,334.656 179.562,332.242C189.347,329.699 204.737,330.532 215.218,334.226C225.721,337.927 237.406,350.082 237.353,361.889C237.308,371.747 214.824,426.424 219.204,462.548C221.316,525.267 241.185,584.041 292.002,633.562C180.943,610.066 130.628,494.778 139.402,343.099ZM172.274,96.438L234.193,96.001C272.446,103.6 300.367,123.694 312.801,162.516C326.504,188.872 328.485,214.794 325.968,240.549L312.775,297.719L289.713,271.611C289.713,271.611 297.865,255.326 296.436,252.47C294.48,248.563 278.441,238.604 269.699,231.356C256.276,220.228 230.682,184.559 215.9,185.703C197.666,187.115 181.943,210.315 181.943,210.315C182.676,220.751 183.409,227.372 184.142,231.204L158.856,218.011C148.039,197.157 130.736,181.708 112.68,166.887C156.71,163.887 189.284,146.491 219.45,126.01L172.274,96.438ZM539.736,343.099C548.51,494.778 498.195,610.066 387.136,633.562C437.953,584.041 457.822,525.267 459.934,462.548C464.314,426.424 441.83,371.747 441.785,361.889C441.731,350.082 453.417,337.927 463.92,334.226C474.401,330.532 489.791,329.699 499.576,332.242C508.864,334.656 508.189,349.089 522.63,349.486C533.136,349.776 539.365,336.68 539.736,343.099ZM339.345,396.766C344.033,396.766 348.924,396.223 353.408,395.001C357.893,393.78 361.586,389.436 366.251,389.436C371.816,389.436 379.758,395.881 386.799,395.001C392.69,394.265 416.747,380.915 416.747,380.915C426.721,406.307 424.109,436.054 415.297,469.796C415.297,469.796 412.811,456.56 407.325,445.243C400.45,431.061 390.114,420.742 382.469,418.127C380.191,417.348 383.136,482.237 357.365,482.169C354.381,482.161 359.708,468.798 359.126,453.724C358.62,440.637 358.198,426.497 349.681,421.528C346.977,419.95 342.791,419.83 339.345,419.83C335.9,419.83 331.713,419.95 329.009,421.528C320.493,426.497 320.07,440.637 319.564,453.724C318.982,468.798 324.309,482.161 321.325,482.169C295.554,482.237 298.499,417.348 296.222,418.127C288.577,420.742 278.24,431.061 271.365,445.243C265.879,456.56 263.394,469.796 263.394,469.796C254.581,436.054 251.969,406.307 261.943,380.915C261.943,380.915 286,394.265 291.891,395.001C298.932,395.881 306.874,389.436 312.439,389.436C317.105,389.436 320.797,393.78 325.282,395.001C329.766,396.223 334.657,396.766 339.345,396.766ZM340.136,335.432C349.102,335.432 358.279,342.461 367.035,344.772C380.902,348.431 393.351,332.927 393.337,324.388C393.327,317.879 376.433,313.445 380.055,307.949C381.326,306.021 394.74,288.837 402.543,285.988C410.311,283.151 418.713,289.497 426.872,290.853C439.969,293.03 475.433,271.485 485.852,261.791C488.421,259.402 483.594,252.453 486.708,250.086C492.988,245.312 514.007,232.329 523.531,233.151C528.888,233.614 533.078,238.812 537.545,244.477C541.019,248.882 546.39,252.51 544.387,253.617C535.088,258.757 534.904,284.089 540.627,304.333C542.387,310.559 514.063,323.068 511.366,322.415C506.706,321.288 502.989,317.897 498.075,316.218C490.994,313.798 482.702,313.196 476.253,313.407C452.448,314.188 441.723,324.448 422.927,352.991C414.21,366.228 393.677,374.592 382.619,380.411C377.064,383.333 373.581,364.208 353.227,378.677C349.789,381.121 344.279,380.91 339.915,380.91C335.561,380.91 330.175,380.903 327.044,378.677C306.69,364.208 303.207,383.333 297.652,380.411C286.594,374.592 266.061,366.228 257.345,352.991C238.549,324.448 227.823,314.188 204.018,313.407C197.57,313.196 189.277,313.798 182.196,316.218C177.282,317.897 173.565,321.288 168.905,322.415C166.208,323.068 137.884,310.559 139.644,304.333C145.367,284.089 145.184,258.757 135.884,253.617C133.881,252.51 139.252,248.882 142.726,244.477C147.193,238.812 151.384,233.614 156.741,233.151C166.264,232.329 187.283,245.312 193.563,250.086C196.678,252.453 191.851,259.402 194.419,261.791C204.838,271.485 240.303,293.03 253.399,290.853C261.558,289.497 269.96,283.151 277.728,285.988C285.531,288.837 298.945,306.021 300.216,307.949C303.838,313.445 286.944,317.879 286.934,324.388C286.92,332.927 299.369,348.431 313.236,344.772C321.992,342.461 331.169,335.432 340.136,335.432ZM340.136,579.857C327.534,579.857 309.205,582.564 302.33,574.306C297.084,568.005 296.914,566.757 293.153,560.022C289.019,552.616 282.134,543.63 276.167,533.67C270.922,524.915 274.242,507.833 275.889,499.019C277.167,492.181 286.048,480.789 286.048,480.789C286.048,480.789 293.748,506.511 297.32,514.188C299.603,519.094 302.694,524.323 307.479,526.851C309.712,528.032 312.193,530.14 315.409,530.392C319.587,530.718 321.194,530.837 323.852,529.556C328.476,527.327 334.708,522.092 340.136,522.092C345.563,522.092 351.796,527.327 356.419,529.556C359.078,530.837 360.684,530.718 364.863,530.392C368.078,530.14 370.559,528.032 372.792,526.851C377.577,524.323 380.668,519.094 382.951,514.188C386.523,506.511 394.223,480.789 394.223,480.789C394.223,480.789 403.105,492.181 404.382,499.019C406.029,507.833 409.35,524.915 404.104,533.67C398.137,543.63 391.252,552.616 387.118,560.022C383.357,566.757 383.187,568.005 377.941,574.306C371.067,582.564 352.738,579.857 340.136,579.857Z" style="fill:white;"/>
</svg>
