<?xml version="1.0" encoding="UTF-8" standalone="no"?>
<!DOCTYPE svg PUBLIC "-//W3C//DTD SVG 1.1//EN" "http://www.w3.org/Graphics/SVG/1.1/DTD/svg11.dtd">
<svg width="100%" height="100%" viewBox="0 0 757 948" version="1.1" xmlns="http://www.w3.org/2000/svg" xmlns:xlink="http://www.w3.org/1999/xlink" xml:space="preserve" xmlns:serif="http://www.serif.com/" style="fill-rule:evenodd;clip-rule:evenodd;stroke-linejoin:round;stroke-miterlimit:2;">
    <path d="M507.436,946.787C455.341,947.374 301.351,947.374 249.256,946.787C237.816,946.658 227.787,911.009 208.974,893.558C184.967,871.289 176.885,858.81 157.613,841.516C152.352,836.794 152.819,813.336 157.343,807.904C169.104,793.786 166.072,751.751 152.838,730.354C134.598,700.862 132.686,698.379 101.983,682.996C92.471,678.231 103.064,653.048 98.032,646.338C92.999,639.627 74.373,643.282 67.002,635.135C51.065,617.52 13.099,559.907 2.409,540.65C-0.544,535.33 -0.908,527.737 2.018,522.403C11.524,505.068 40.724,519.948 59.447,436.639C70.447,387.695 56.885,289.878 61.699,226.096C66.372,164.168 113.196,109.002 162.914,70.413C190.181,49.249 233.498,28.356 275.369,16.7C331.187,1.162 344.021,0 378.346,0C412.672,0 425.506,1.162 481.323,16.7C523.194,28.356 566.512,49.249 593.779,70.413C643.496,109.002 690.32,164.168 694.994,226.096C699.808,289.878 686.245,387.695 697.245,436.639C715.969,519.948 745.169,505.068 754.675,522.403C757.6,527.737 757.236,535.33 754.284,540.65C743.594,559.907 705.628,617.52 689.691,635.135C682.32,643.282 663.694,639.627 658.661,646.338C653.628,653.048 664.222,678.231 654.71,682.996C624.006,698.379 622.095,700.862 603.854,730.354C590.62,751.751 587.588,793.786 599.349,807.904C603.874,813.336 604.341,836.794 599.079,841.516C579.808,858.81 571.725,871.289 547.719,893.558C528.905,911.009 518.876,946.658 507.436,946.787Z"/>
    <path d="M302.155,832.287C328.384,833.394 429.883,833.394 456.111,832.287C463.054,831.994 472.365,828.534 478.693,826.059C484.657,823.728 490.686,821.516 496.446,818.718C502.194,815.927 507.546,812.386 513.153,809.323C517.323,807.045 524.836,804.719 527.116,799.648C528.881,795.721 523.738,791.124 523.108,787.909C521.988,782.202 521.231,776.344 521.505,770.535C521.875,762.701 527.479,741.139 529.707,733.984C543.054,691.121 577.178,639.79 591.344,623.016C595.847,617.684 609.713,628.461 614.7,633.344C617.122,635.716 619.213,638.488 620.795,641.486C622.316,644.371 623.597,647.519 623.888,650.767C624.618,658.908 607.42,663.012 604.035,665.406C599.569,668.563 595.817,672.642 592.03,676.588C576.559,692.707 565.261,712.091 561.603,734.344C558.859,751.037 560.33,768.693 564.862,784.938C567.69,795.072 575.782,805.831 573.778,816.808C569.185,841.97 545.568,859.065 530.765,877.691C526.147,883.501 522.58,890.073 518.437,896.23C516.407,899.247 498.127,920.504 494.492,920.604C442.197,922.036 316.069,922.036 263.774,920.604C260.139,920.505 241.86,899.247 239.83,896.231C235.687,890.073 232.119,883.501 227.502,877.691C212.699,859.065 189.081,841.97 184.488,816.808C182.484,805.831 190.577,795.072 193.404,784.938C197.936,768.694 199.408,751.037 196.664,734.344C193.006,712.091 181.707,692.707 166.237,676.588C162.45,672.643 158.697,668.563 154.232,665.406C150.846,663.012 133.648,658.908 134.378,650.768C134.67,647.52 135.951,644.371 137.472,641.486C139.053,638.488 141.144,635.716 143.566,633.345C148.554,628.462 162.419,617.684 166.923,623.017C181.088,639.79 215.213,691.121 228.56,733.984C230.788,741.139 236.392,762.702 236.761,770.535C237.035,776.345 236.279,782.202 235.159,787.909C234.528,791.125 229.385,795.721 231.151,799.648C233.43,804.719 240.943,807.045 245.114,809.323C250.721,812.386 256.073,815.927 261.82,818.719C267.58,821.516 273.609,823.728 279.573,826.06C285.902,828.534 295.213,831.994 302.155,832.287ZM379.133,35.762C409.811,35.762 459.712,47.601 471.166,51.305C555.133,78.461 652.761,135.889 663.206,229.472C668.535,277.218 651.052,341.057 661.673,402.507C669.847,449.798 662.224,474.053 693.593,510.593C713.653,533.96 678.848,590.902 666.967,606.793C658.896,617.586 639.882,614.549 629.708,613.412C620.934,612.43 617.432,602.722 608.17,597.996C604.955,596.355 601.627,594.817 598.12,593.963C568.046,586.639 548.664,617.792 530.694,635.66C523.538,642.776 518.558,654.722 508.599,656.358C487.595,659.807 426.18,653.727 404.669,656.358C395.668,657.459 387.645,667.751 379.133,667.751C370.621,667.751 362.598,657.459 353.597,656.358C332.087,653.727 270.671,659.807 249.667,656.358C239.709,654.722 234.728,642.776 227.572,635.66C209.603,617.792 190.22,586.639 160.147,593.963C156.639,594.817 153.312,596.355 150.096,597.996C140.834,602.722 137.333,612.43 128.559,613.412C118.384,614.549 99.371,617.586 91.3,606.793C79.418,590.902 44.613,533.96 64.673,510.593C96.042,474.053 88.419,449.798 96.593,402.507C107.215,341.057 89.732,277.218 95.061,229.472C105.505,135.889 203.134,78.461 287.101,51.305C298.555,47.601 348.456,35.762 379.133,35.762ZM533.92,362.091C514.386,364.924 479.401,382.246 459.863,390.49C440.895,398.493 436.506,422.036 440.754,437.128C444.397,450.074 473.595,476.452 481.971,482.165C498.327,493.32 500.301,489.686 516.656,501.033C529.27,509.785 544.546,528.434 553.114,533.876C557.322,536.548 563.159,534.553 568.068,533.681C583.125,531.009 588.587,514.999 596.211,504.277C603.492,494.039 615.594,481.383 613.493,469.282C611.61,458.44 595.814,442.494 587.149,423.968C578.542,405.568 577.081,384.581 570.69,375.367C563.648,365.212 546.15,360.317 533.92,362.091ZM397.879,583.698C405.389,579.577 421.809,565.275 427.818,559.028C433.393,553.233 441.254,544.413 439.656,535.25C438.156,526.652 428.058,520.711 423.444,514.541C419.736,509.583 416.576,504.213 413.694,498.734C405.052,482.305 399.964,464.105 396.78,445.903C396.473,444.146 392.439,443.144 391.202,443.017C390.758,442.971 367.509,442.971 367.065,443.017C365.827,443.144 361.794,444.146 361.486,445.903C358.303,464.105 353.215,482.305 344.573,498.734C341.691,504.213 338.53,509.583 334.823,514.541C330.208,520.711 320.111,526.652 318.611,535.25C317.012,544.413 324.873,553.233 330.448,559.028C336.458,565.275 352.878,579.577 360.387,583.698C361.597,584.362 396.669,584.362 397.879,583.698ZM222.177,362.091C209.947,360.317 192.45,365.212 185.407,375.367C179.017,384.581 177.555,405.568 168.948,423.968C160.283,442.494 144.488,458.44 142.605,469.282C140.503,481.383 152.605,494.039 159.886,504.277C167.51,514.999 172.972,531.009 188.029,533.681C192.938,534.553 198.775,536.548 202.983,533.876C211.552,528.434 226.827,509.785 239.441,501.033C255.796,489.686 257.77,493.32 274.126,482.165C282.502,476.452 311.7,450.074 315.344,437.128C319.591,422.036 315.202,398.493 296.235,390.49C276.696,382.246 241.711,364.924 222.177,362.091ZM316.234,760.059C324.196,760.534 337.348,772.434 349.189,775.976C352.554,776.982 356.287,776.482 359.583,777.691C365.156,779.736 364.182,784.401 364.612,789.391C365.518,799.908 365.468,799.827 365.658,810.435C365.697,812.621 367.257,818.713 364.333,820.527C359.349,823.619 352.182,822.027 346.926,821.901C333.215,821.573 316.133,823.159 309.273,808.315C308.162,805.911 306.984,803.451 306.614,800.829C305.967,796.249 306.263,791.582 306.258,786.956C306.25,778.062 308.861,759.618 316.234,760.059ZM454.092,682.887C458.679,698.274 459.274,718.546 450.681,732.779C445.896,740.704 439.795,744.983 432.099,749.715C422.494,755.621 401.962,765.158 392.284,754.03C388.498,749.677 389.323,742.591 389.184,737.665C388.856,726.104 386.326,711.412 391.418,701.939C396.51,692.466 401.387,686.571 411.809,683.708C422.231,680.845 442.819,677.697 454.092,682.887ZM266.301,752.271C274.898,752.344 282.244,762.312 288.272,769.84C290.281,772.349 293.484,775.988 294.245,779.299C295.015,782.649 295.115,786.126 295.273,789.56C295.453,793.486 295.273,801.834 294.722,806.375C294.641,807.043 294.051,812.447 292.413,813.198C291.1,813.799 289.525,813.544 288.087,813.417C269.575,811.783 250.952,791.975 250.814,773.725C250.702,758.863 259.854,752.216 266.301,752.271ZM491.965,752.271C498.412,752.216 507.564,758.863 507.452,773.725C507.314,791.975 488.692,811.783 470.179,813.417C468.741,813.544 467.166,813.799 465.854,813.198C464.215,812.447 463.625,807.043 463.544,806.375C462.993,801.834 462.814,793.486 462.994,789.56C463.151,786.126 463.251,782.649 464.021,779.299C464.783,775.988 467.986,772.349 469.994,769.84C476.023,762.312 483.369,752.344 491.965,752.271ZM304.175,682.887C315.447,677.697 336.036,680.845 346.458,683.708C356.879,686.571 361.757,692.466 366.849,701.939C371.941,711.412 369.41,726.104 369.083,737.665C368.943,742.591 369.769,749.677 365.983,754.03C356.305,765.158 335.773,755.621 326.168,749.715C318.471,744.983 312.371,740.704 307.586,732.779C298.992,718.546 299.588,698.274 304.175,682.887ZM519.475,687.565C519.135,692.922 517.096,708.775 511.445,719.397C504.178,733.054 491.054,741.771 487.026,743.783C484.117,745.236 472.126,748.119 471.699,740.669C471.093,730.077 472.18,707.962 472.824,698.604C473.083,694.851 474.388,685.848 478.999,686.136C495.151,687.146 520.751,667.475 519.475,687.565ZM442.033,760.059C449.405,759.618 452.017,778.062 452.008,786.956C452.004,791.582 452.3,796.249 451.653,800.829C451.283,803.451 450.104,805.911 448.993,808.315C442.134,823.159 425.052,821.573 411.341,821.901C406.085,822.027 398.917,823.619 393.933,820.527C391.009,818.713 392.569,812.621 392.608,810.435C392.798,799.827 392.749,799.908 393.655,789.391C394.085,784.401 393.11,779.736 398.683,777.691C401.98,776.482 405.713,776.982 409.077,775.976C420.918,772.434 434.071,760.534 442.033,760.059ZM238.791,687.565C237.516,667.475 263.116,687.146 279.268,686.136C283.879,685.848 285.184,694.851 285.442,698.604C286.087,707.962 287.174,730.077 286.567,740.669C286.14,748.119 274.15,745.236 271.24,743.783C267.212,741.771 254.088,733.054 246.822,719.397C241.17,708.775 239.132,692.922 238.791,687.565Z" style="fill:white;"/>
</svg>
