<?xml version="1.0" encoding="UTF-8" standalone="no"?>
<!DOCTYPE svg PUBLIC "-//W3C//DTD SVG 1.1//EN" "http://www.w3.org/Graphics/SVG/1.1/DTD/svg11.dtd">
<svg width="100%" height="100%" viewBox="0 0 1927 2209" version="1.1" xmlns="http://www.w3.org/2000/svg" xmlns:xlink="http://www.w3.org/1999/xlink" xml:space="preserve" xmlns:serif="http://www.serif.com/" style="fill-rule:evenodd;clip-rule:evenodd;stroke-linecap:round;stroke-linejoin:round;stroke-miterlimit:1.5;">
    <path d="M963.081,2208.08C962.928,2208.16 -70.432,1601.83 4.374,354.244C133.632,354.619 399.998,149.331 392.022,0.5L1534.14,0.5C1526.16,149.331 1792.53,354.619 1921.79,354.244C1996.59,1601.83 963.235,2208.16 963.081,2208.08Z" style="stroke:black;stroke-width:1px;"/>
    <path d="M1451.99,86.162C1542.72,305.331 1689.21,378.204 1839.52,432.124C1824.05,1249.81 1478.19,1730.27 963.081,2078.25C447.968,1730.27 102.108,1249.81 86.641,432.124C236.956,378.204 383.447,305.331 474.173,86.162L1451.99,86.162Z" style="fill:white;"/>
    <path d="M1497.44,310.026C1533.77,474.689 1336.4,493.921 1266.83,493.941C1258.27,493.944 1248.84,475.254 1237.03,471.147C1209.16,461.459 1093.65,463.212 1099.62,435.811C1106.67,403.484 1278.25,304.062 1338.86,300.74C1378.11,298.589 1420.46,327.84 1446.87,325.968C1460.52,325.001 1493.96,294.247 1497.44,310.026ZM1244.7,1104.41C1283.31,1135.08 1350.91,1283.15 1421.79,1358.67C1444.43,1382.81 1457.61,1394.1 1484.33,1412.4C1489.13,1415.69 1494.35,1418.36 1499.57,1420.95C1504.5,1423.39 1515.76,1422.05 1514.73,1427.46C1510.57,1449.3 1462.47,1537.38 1451.73,1555.62C1400.66,1642.39 1336.86,1721.14 1267.8,1794.13C1260.04,1802.34 1162.82,1901.54 1152.91,1906.34C1145.41,1909.97 1148.7,1890.18 1147.4,1881.95C1143.59,1857.78 1145.05,1833.24 1149.53,1809.29C1160.03,1753.16 1185.36,1700.75 1205.25,1647.67C1227.03,1589.57 1246.41,1531.21 1257.8,1470.11C1260.44,1455.95 1264.42,1441.85 1264.65,1427.46C1264.76,1420.41 1252.68,1384.39 1250.71,1378.84C1236.18,1337.88 1219.83,1297.66 1208.08,1255.76C1206.3,1249.38 1185.18,1199.04 1190.16,1174.71C1196.03,1146.03 1221.48,1085.97 1244.7,1104.41ZM1061.03,1104.41C1011.38,1062.29 914.781,1062.29 865.137,1104.41C829.997,1134.23 794.943,1156.58 767.403,1153.92C719.744,1149.33 701.723,999.683 676.674,1039.84C607.963,1150.01 531.343,1292.17 431.137,1330.92C388.774,1347.3 310.075,1313.56 292.436,1286.33C274.796,1259.1 333.728,1186.54 325.3,1167.55C316.872,1148.55 253.433,1189.98 241.869,1172.38C230.305,1154.78 237.536,1113.5 255.916,1061.94C267.412,1029.69 300.787,987.092 320.2,961.235C352.688,917.966 402.183,902.406 407.137,883.007C413.712,857.262 358.164,864.111 327.961,873.746C298.573,883.122 274.001,908.168 264.706,900.737C245.859,885.668 283.512,828.399 305.055,795.596C330.499,756.853 373.914,723.612 408.482,697.688C448.424,667.736 496.162,652.288 498.487,626.308C499.755,612.144 479.539,606.35 463.104,574.814C448.636,547.051 417.645,508.584 430.719,489.027C431.123,488.423 603.723,534.806 647.771,529.594C666.855,527.336 619.034,594.732 632.933,605.918C659.995,627.695 688.936,628.123 718.086,636.172C738.812,641.895 740.688,658.876 782.067,658.106C819.794,657.404 877.057,644.395 889.444,649.485C901.831,654.575 861.355,672.302 856.39,688.646C849.931,709.912 878.849,769.033 850.688,777.078C822.526,785.123 713.212,748.984 687.419,736.916C677.351,732.205 703.432,712.879 695.933,704.673C683.316,690.867 626.975,641.396 611.717,654.079C598.562,665.015 601.251,690.002 590.203,707.491C579.362,724.651 578.021,738.423 583.15,745.024C593.11,757.843 626.623,758.624 642.549,771.927C690.111,811.654 753.089,878.097 749.121,917.022C746.212,945.561 703.713,970.926 704.446,1000.72C705.149,1029.3 746.935,1089.69 771.337,1094.48C792.891,1098.71 815.542,1072.47 844.743,1054.91C872.191,1038.4 921.639,1018.53 944.574,1018.65C966.052,1018.77 931.436,971.667 914.607,955.59C894.971,936.831 857.213,918.761 826.762,906.103C802.693,896.098 839.119,815.676 852.904,814.645C864.13,813.805 861.045,847.235 872.525,844.293C922.813,831.407 932.442,834.325 962.627,834.325C992.812,834.325 1003.35,831.407 1053.64,844.293C1065.12,847.235 1062.03,813.805 1073.26,814.645C1087.04,815.676 1123.47,896.098 1099.4,906.103C1068.95,918.761 1031.19,936.831 1011.56,955.59C994.727,971.667 960.111,1018.77 981.588,1018.65C1004.52,1018.53 1053.97,1038.4 1081.42,1054.91C1110.62,1072.47 1133.27,1098.71 1154.83,1094.48C1179.23,1089.69 1221.01,1029.3 1221.72,1000.72C1222.45,970.926 1179.95,945.561 1177.04,917.022C1173.07,878.097 1236.05,811.654 1283.61,771.927C1299.54,758.624 1333.05,757.843 1343.01,745.024C1348.14,738.423 1346.8,724.651 1335.96,707.491C1324.91,690.002 1327.6,665.015 1314.44,654.079C1299.19,641.396 1242.85,690.867 1230.23,704.673C1222.73,712.879 1248.81,732.205 1238.74,736.916C1212.95,748.984 1103.64,785.123 1075.47,777.078C1047.31,769.033 1076.23,709.912 1069.77,688.646C1064.81,672.302 1024.33,654.575 1036.72,649.485C1049.11,644.395 1106.37,657.404 1144.1,658.106C1185.48,658.876 1187.35,641.895 1208.08,636.172C1237.23,628.123 1266.17,627.695 1293.23,605.918C1307.13,594.732 1259.31,527.336 1278.39,529.594C1322.44,534.806 1495.04,488.423 1495.44,489.027C1508.52,508.584 1477.53,547.051 1463.06,574.814C1446.62,606.35 1426.41,612.144 1427.67,626.308C1430,652.288 1477.74,667.736 1517.68,697.688C1552.25,723.612 1595.66,756.853 1621.11,795.596C1642.65,828.399 1680.3,885.668 1661.46,900.737C1652.16,908.168 1627.59,883.122 1598.2,873.746C1568,864.111 1512.45,857.262 1519.03,883.007C1523.98,902.406 1573.48,917.966 1605.96,961.235C1625.38,987.092 1658.75,1029.69 1670.25,1061.94C1688.63,1113.5 1695.86,1154.78 1684.29,1172.38C1672.73,1189.98 1609.29,1148.55 1600.86,1167.55C1592.43,1186.54 1651.37,1259.1 1633.73,1286.33C1616.09,1313.56 1537.39,1347.3 1495.03,1330.92C1394.82,1292.17 1318.2,1150.01 1249.49,1039.84C1224.44,999.683 1206.42,1149.33 1158.76,1153.92C1131.22,1156.58 1096.17,1134.23 1061.03,1104.41ZM428.72,310.026C432.201,294.247 465.645,325.001 479.289,325.968C505.699,327.84 548.052,298.589 587.305,300.74C647.915,304.062 819.493,403.484 826.539,435.811C832.511,463.212 717.003,461.459 689.136,471.147C677.323,475.254 667.891,493.944 659.335,493.941C589.766,493.921 392.394,474.689 428.72,310.026ZM681.457,1104.41C704.684,1085.97 730.137,1146.03 736.006,1174.71C740.983,1199.04 719.867,1249.38 718.08,1255.76C706.334,1297.66 689.978,1337.88 675.449,1378.84C673.478,1384.39 661.401,1420.41 661.513,1427.46C661.744,1441.85 665.726,1455.95 668.363,1470.11C679.748,1531.21 699.136,1589.57 720.915,1647.67C740.808,1700.75 766.136,1753.16 776.631,1809.29C781.111,1833.24 782.576,1857.78 778.759,1881.95C777.46,1890.18 780.753,1909.97 773.252,1906.34C763.343,1901.54 666.127,1802.34 658.364,1794.13C589.303,1721.14 525.504,1642.39 474.432,1555.62C463.693,1537.38 415.593,1449.3 411.432,1427.46C410.403,1422.05 421.666,1423.39 426.595,1420.95C431.815,1418.36 437.031,1415.69 441.837,1412.4C468.554,1394.1 481.729,1382.81 504.376,1358.67C575.252,1283.15 642.853,1135.08 681.457,1104.41ZM1161.73,1168.5C1153.26,1198 1153.17,1227.99 1161.95,1256.94C1176.97,1306.48 1179.42,1306.24 1197.97,1355.1C1212.47,1393.28 1228.9,1433.74 1228.88,1475.45C1228.88,1490.63 1226.8,1505.51 1221.37,1519.77C1218.61,1527.03 1214.22,1533.57 1210.94,1540.62C1205.17,1553.03 1200.09,1565.76 1194.22,1578.12C1180.24,1607.53 1164.25,1636.6 1145.72,1663.43C1114.16,1709.15 1076.67,1752.58 1057.26,1805.5C1042.4,1846.01 1036.64,1889.3 1034.18,1932.17C1033.32,1947.08 1041.67,1965 1032.69,1976.93C1027.26,1984.15 1021.83,1962.43 1017.3,1954.6C1007.31,1937.31 1000.14,1918.07 994.749,1898.92C984.816,1863.67 979.631,1826.13 977.562,1789.62C973.208,1712.76 973.585,1679.45 974.724,1600.69C975.84,1523.55 978.78,1446.43 979.485,1369.28C979.879,1326.18 972.779,1280.17 981.588,1237.99C984.061,1226.15 998.946,1263.11 1006.27,1272.74C1019.17,1289.7 1032.47,1300.07 1055.32,1294.36C1103.43,1282.34 1051.33,1253.46 1091.9,1194.44C1106.2,1173.64 1136.53,1169.87 1161.73,1168.5ZM764.43,1168.5C789.632,1169.87 819.963,1173.64 834.262,1194.44C874.835,1253.46 822.732,1282.34 870.844,1294.36C893.692,1300.07 906.996,1289.7 919.894,1272.74C927.216,1263.11 942.101,1226.15 944.574,1237.99C953.383,1280.17 946.284,1326.18 946.678,1369.28C947.382,1446.43 950.322,1523.55 951.438,1600.69C952.578,1679.45 952.954,1712.76 948.6,1789.62C946.532,1826.13 941.347,1863.67 931.413,1898.92C926.019,1918.07 918.852,1937.31 908.86,1954.6C904.338,1962.43 898.906,1984.15 893.471,1976.93C884.496,1965 892.842,1947.08 891.985,1932.17C889.52,1889.3 883.763,1846.01 868.903,1805.5C849.491,1752.58 812.003,1709.15 780.439,1663.43C761.915,1636.6 745.923,1607.53 731.944,1578.12C726.068,1565.76 720.995,1553.03 715.221,1540.62C711.943,1533.57 707.555,1527.03 704.792,1519.77C699.367,1505.51 697.287,1490.63 697.279,1475.45C697.259,1433.74 713.696,1393.28 728.194,1355.1C746.744,1306.24 749.188,1306.48 764.214,1256.94C772.995,1227.99 772.905,1198 764.43,1168.5ZM959.627,564.044C959.627,564.044 843.547,349.38 668.352,288.242C695.356,252.345 859.292,220.912 957.535,220.912C1055.78,220.912 1230.81,252.345 1257.81,288.242C1082.62,349.38 959.627,564.044 959.627,564.044Z"/>
</svg>
