<?xml version="1.0" encoding="UTF-8" standalone="no"?>
<!DOCTYPE svg PUBLIC "-//W3C//DTD SVG 1.1//EN" "http://www.w3.org/Graphics/SVG/1.1/DTD/svg11.dtd">
<svg width="100%" height="100%" viewBox="0 0 501 451" version="1.1" xmlns="http://www.w3.org/2000/svg" xmlns:xlink="http://www.w3.org/1999/xlink" xml:space="preserve" xmlns:serif="http://www.serif.com/" style="fill-rule:evenodd;clip-rule:evenodd;stroke-linejoin:round;stroke-miterlimit:2;">
    <path d="M361.716,271.283C354.355,269.799 351.305,275.547 351.305,275.547C336.385,299.435 313.432,321.696 286.418,339.745C258.093,365.134 235.335,394.458 219.173,427.376C208.105,449.922 188.278,453.293 174.387,449.049C159.294,444.437 145.22,429.27 150.59,404.977C151.827,399.381 153.957,392.532 156.716,385.018C102.094,387.193 56.027,364.249 40.472,308.586C38.853,302.793 39.365,296.786 41.658,291.527C41.044,290.871 40.435,290.21 39.833,289.543C10.007,256.53 -5.818,208.868 4.969,157.514C6.524,150.113 11.222,143.967 17.565,140.45C17.788,130.964 20.009,119.63 25.548,106.286C26.182,104.248 27.077,102.273 28.232,100.412C32.478,93.573 37.278,86.995 42.6,80.68C46.617,75.913 52.134,72.89 58.045,71.937C60.473,66.336 64.02,60.773 68.89,55.468C69.857,54.414 70.912,53.443 72.042,52.566C103.169,28.41 143.62,11.074 188.374,3.837C193.455,3.015 198.56,3.76 203.077,5.832C207.274,3.621 212.378,1.852 218.658,0.736C219.749,0.542 220.852,0.419 221.958,0.369C223.796,0.285 225.643,0.227 227.489,0.175L227.507,0.175C229.863,0.111 232.221,0.086 234.59,0.078L234.597,0.077C251.743,0.023 269.229,1.458 286.784,4.501C288.328,4.769 289.844,5.178 291.314,5.725C299.502,8.769 306.168,12.392 311.603,16.321C317.316,13.746 323.913,13.305 330.12,15.365C360.051,25.302 389.594,40.327 417.413,61.207C417.877,61.543 418.355,61.914 418.846,62.321C418.946,62.403 419.044,62.486 419.142,62.569L419.142,62.567C427.233,69.361 432.201,76.091 435.304,82.181C440.776,82.848 445.994,85.283 450.08,89.292C450.889,90.086 451.688,90.898 452.487,91.698C501.47,140.715 506.111,195.091 490.529,230.839C477.187,261.447 449.972,282.061 411.994,281.726C411.411,281.72 410.827,281.695 410.245,281.65C395.285,280.488 384.173,275.964 375.978,270.06C371.522,271.788 366.584,272.265 361.716,271.283ZM234.678,25.576C232.51,25.584 230.351,25.606 228.195,25.664C226.501,25.711 224.807,25.764 223.121,25.841C214.849,27.312 211.029,30.934 208.955,35.079C206.669,39.65 206.758,45.801 209.307,51.27C211.857,56.742 216.534,61.215 223.063,62.885C229.594,64.556 238.584,63.693 250.399,56.14L259.844,70.922C244.998,80.411 230.632,82.915 218.722,79.867C206.814,76.82 197.977,68.489 193.411,58.69C189.109,49.458 188.318,38.627 192.444,29.009C152.163,35.522 115.691,50.969 87.675,72.71C78.468,82.742 77.567,94.401 81.602,102.364C86.136,111.305 96.817,117.831 118.179,111.074L123.487,127.792C96.663,136.277 74.553,127.241 65.971,110.312C63.878,106.185 62.6,101.718 62.098,97.112C57.58,102.474 53.501,108.054 49.897,113.86L50.015,113.917C41.93,132.328 41.746,145.08 44.969,153.367C48.194,161.654 54.951,166.92 65.355,169.822C86.161,175.622 119.853,168.623 143.578,150.904C153.734,143.32 163.361,124.927 164.199,110.663C164.616,103.529 163.105,97.894 160.121,94.296C157.136,90.697 152.357,88.004 142.463,88.107L142.288,70.569C155.885,70.428 166.925,75.031 173.613,83.093C180.299,91.155 182.304,101.538 181.708,111.689C180.516,131.994 169.887,153.148 154.078,164.953C126.037,185.897 89.001,194.618 60.662,186.717C47.533,183.057 35.912,175.092 29.924,162.755C20.964,205.41 33.981,245.031 58.755,272.45C61.993,276.035 65.439,279.424 69.051,282.568C66.466,275.165 65.282,267.457 65.559,259.955C66.057,246.51 71.268,233.35 81.722,224.261C90.295,216.803 102.138,212.501 116.302,212.529C117.246,212.529 118.211,212.546 119.175,212.585C121.381,212.679 123.646,212.87 125.952,213.173L123.662,230.566C109.031,228.644 99.536,231.995 93.218,237.488C86.902,242.983 83.417,251.205 83.069,260.601C82.375,279.395 94.398,301.34 120.321,307.706L120.291,307.882C145.813,312.753 174.293,308.231 202.886,290.781C202.903,290.77 202.926,290.765 202.944,290.753C208.895,286.577 212.1,282.486 213.679,278.962C215.542,274.802 215.503,271.179 214.177,267.288C211.526,259.507 202.032,251.509 193.324,249.28C179.243,245.675 170.299,250.627 166.105,256.525C161.911,262.42 161.656,268.211 168.129,273.241L157.363,287.085C144.048,276.73 143.198,258.471 151.821,246.346C158.29,237.254 169.64,231.023 183.323,230.625C183.893,230.608 184.476,230.592 185.054,230.597C189.095,230.625 193.304,231.181 197.665,232.296C212.218,236.022 225.673,246.635 230.778,261.626C232.107,265.526 232.74,269.783 232.539,274.123C248.223,266.109 264.762,258.993 281.61,253.649C309.913,240.715 322.184,218.041 321.705,198.949C321.222,179.714 309.328,163.527 281.932,160.818L283.663,143.366C318.077,146.769 338.534,171.381 339.215,198.507C339.612,214.313 333.815,230.76 322.145,244.76C337.229,243.071 352.22,243.357 366.755,246.287C363.797,240.213 362.363,233.637 362.562,227.105C363.198,206.422 380.79,187.128 408.435,186.834C410.278,186.814 412.165,186.884 414.095,187.039L412.687,204.52C389.291,202.645 380.494,214.925 380.102,227.661C379.715,240.257 388.122,254.356 412.22,256.228C438.781,256.462 457.823,242.057 467.154,220.65C479.647,191.99 473.721,149.021 434.451,109.722C433.707,108.978 432.97,108.227 432.222,107.493C431.805,111.052 430.885,114.479 429.554,117.671C422.749,133.993 406.81,145.01 390.251,148.087C367.411,152.331 348.682,143.069 340.038,128.935C331.393,114.803 333.663,94.818 349.217,84.296L359.044,98.844C350.678,104.502 350.334,112.162 354.996,119.784C359.658,127.407 370.172,134.009 387.054,130.872C397.665,128.899 409.482,120.238 413.362,110.927C415.305,106.272 415.68,101.671 413.745,96.408C412.173,92.132 408.876,87.243 402.745,82.094L402.569,81.949C376.931,62.626 349.692,48.73 322.087,39.566C322.103,39.596 322.129,39.622 322.146,39.653C328.419,51.122 328.885,64.133 325.02,75.642C317.293,98.66 293.043,116.796 263.045,115.794C256.523,115.578 250.318,118.722 245.037,124.858C239.756,130.993 235.9,139.981 235.006,149.554C233.218,168.701 241.503,189.806 273.81,200.237L268.408,216.927C229.848,204.478 215.069,174.179 217.518,147.942C218.745,134.825 223.812,122.636 231.744,113.421C239.677,104.206 250.961,97.838 263.627,98.257C286.191,99.01 303.351,85.039 308.385,70.041C310.902,62.544 310.577,55.083 306.743,48.074C303.018,41.267 295.639,34.537 282.428,29.625C266.365,26.84 250.366,25.526 234.678,25.576ZM329.678,262.038C290.338,265.239 247.678,284.001 212.093,305.74C159.552,337.838 104.261,330.831 65.03,301.723C80.464,356.953 135.153,368.163 192.207,354.194C197.916,352.05 203.526,348.058 208.31,342.903C214.933,335.763 219.732,326.506 221.243,318.852L238.461,322.255C236.166,333.877 229.94,345.405 221.185,354.842C212.785,363.894 201.841,371.126 189.185,373.026C182.835,387.17 177.609,400.883 175.488,410.48C172.156,425.554 188.821,431.34 196.283,416.14C214.137,379.777 239.335,347.408 270.811,319.498C295.274,303.399 316.243,283.548 329.678,262.038Z"/>
</svg>
