<?xml version="1.0" encoding="UTF-8" standalone="no"?>
<!DOCTYPE svg PUBLIC "-//W3C//DTD SVG 1.1//EN" "http://www.w3.org/Graphics/SVG/1.1/DTD/svg11.dtd">
<svg width="100%" height="100%" viewBox="0 0 562 578" version="1.1" xmlns="http://www.w3.org/2000/svg" xmlns:xlink="http://www.w3.org/1999/xlink" xml:space="preserve" xmlns:serif="http://www.serif.com/" style="fill-rule:evenodd;clip-rule:evenodd;stroke-linejoin:round;stroke-miterlimit:2;">
    <path d="M147.661,551.73L147.659,551.732C104.083,551.732 76.78,529.505 62.641,495.031C45.792,453.95 50.771,390.678 73.222,331.708C76.758,322.419 84.955,315.702 94.758,314.06L98.472,313.438C91.724,304.559 90.838,292.37 96.523,282.52C98.76,278.643 101.06,274.821 103.436,271.085C115.986,251.349 127.715,231.727 137.27,212.666L118.94,212.666C116.626,212.666 114.379,212.386 112.228,211.856C37.626,208.116 2.807,123.067 37.349,70.58L37.35,70.578C55.418,43.129 81.6,28.333 109.275,24.563C112.649,24.103 116.043,23.802 119.452,23.654L119.455,23.654C120.927,23.591 122.402,23.555 123.88,23.549C141.579,23.467 159.633,27.485 176.929,34.716C247.553,40.773 358.732,38.021 400.259,29.952C402.018,29.61 403.806,29.438 405.598,29.438C438.57,29.438 462.768,40.142 479.92,56.634C496.883,72.944 507.197,95.537 510.712,121.833C512.116,132.331 507.501,142.285 499.478,148.153C501.949,153.336 502.826,159.273 501.755,165.187C501.184,168.342 500.091,171.309 498.569,173.996C504.366,180.875 506.632,190.314 504.182,199.356C493.776,237.772 473.404,276.398 446.514,305.782C420.884,333.785 406.563,368.817 404.835,403.577L448.362,403.577C465.457,403.577 479.269,406.62 490.437,411.24C500.611,415.449 507.372,425.231 507.714,436.235C507.729,436.714 507.732,437.191 507.723,437.666L510.892,438.038C521.66,439.302 530.729,446.67 534.172,456.95C536.439,463.718 537.708,470.758 538.004,477.853C538.793,496.76 532.376,515.654 520.698,529.453L520.697,529.455C508.497,543.868 491.235,553.68 467.132,553.68L229.942,553.68C221.898,553.68 214.478,550.247 209.296,544.592C194.081,548.959 176.13,551.346 157.638,551.788C157.349,551.795 157.059,551.797 156.77,551.795C156.77,551.795 147.917,551.733 147.661,551.73C160.65,551.729 147.659,551.73 147.659,551.73C147.659,551.73 147.899,551.549 147.661,551.73ZM430.841,134.393L430.837,134.393L430.839,134.391L430.841,134.393L482.968,125.543C477.736,86.409 454.128,57.43 405.598,57.43C361.716,65.956 242.686,68.986 169.916,62.192C155.028,55.429 139.369,51.469 124.008,51.54C122.89,51.545 121.774,51.572 120.66,51.62C118.113,51.73 115.577,51.954 113.056,52.298C92.889,55.045 73.898,65.965 60.732,85.968C36.119,123.368 62.926,183.993 117.357,183.993C117.893,183.993 118.415,183.981 118.94,183.971L118.94,184.675L179.505,184.675C168.747,216.669 149.207,251.271 127.057,286.105C124.895,289.505 122.803,292.983 120.767,296.511L155.645,332.244L99.382,341.667C66.654,427.633 71.962,523.741 147.659,523.741L147.659,523.739L156.969,523.805C180.799,523.235 203.701,519.507 218.294,510.918C222.468,508.46 225.924,505.681 228.761,502.498L196.315,502.498C175.985,508.448 155.515,495.558 148.919,476.576C139.963,450.806 156.439,424.216 180.786,416.124C186.589,414.194 192.509,413.29 198.351,413.29L198.351,412.884L376.681,412.884C376.111,368.481 393.031,322.759 425.865,286.884C449.82,260.708 467.895,226.26 477.165,192.038L435.94,167.106L474.212,160.2L430.841,134.393ZM124.472,70.243C137.609,70.286 151.879,74.047 165.719,80.873L165.752,80.803C170.419,85.538 174.294,90.54 177.432,95.788L103.496,95.788L114.07,110.568C124.678,125.398 133.873,142.558 135.16,152.592C135.803,157.609 135.05,159.759 133.346,161.428C131.641,163.098 127.118,165.303 117.356,165.303C76.769,165.303 60.478,120.351 76.344,96.243C86.814,80.336 100.158,72.916 115.578,70.816C118.468,70.421 121.441,70.233 124.472,70.243ZM139.076,114.476L185.356,114.476C189.631,130.21 189.012,147.546 184.812,165.986L152.096,165.986C153.996,160.959 154.364,155.412 153.696,150.216C152.169,138.303 146.291,126.151 139.076,114.476ZM240.629,431.571C247.069,438.411 251.821,446.881 253.999,456.485C257.796,473.221 257.091,487.693 252.232,499.689C247.706,510.864 239.656,519.479 229.942,525.689L467.132,525.689C481.58,525.689 492.019,520.011 499.332,511.371C506.644,502.731 510.532,490.857 510.037,479.019C509.851,474.546 509.059,470.106 507.63,465.839L437.72,457.634L479.737,437.106C471.417,433.664 461.097,431.569 448.362,431.569L240.629,431.569L240.629,431.571ZM224.313,442.132C224.214,442.015 224.156,441.964 224.146,441.988C216.999,435.86 207.547,432.11 197.96,432.079L197.961,432.077C196.809,432.074 195.655,432.125 194.504,432.23C191.871,432.472 189.248,433.005 186.68,433.86C171.57,438.88 161.342,455.4 166.57,470.443C170.243,481.013 181.917,488.153 192.224,484.381L193.779,483.811L237.133,483.811C238.079,477.451 237.887,469.929 235.775,460.619C234.14,453.412 229.958,447.026 224.313,442.132Z"/>
</svg>
